<?xml version="1.0" encoding="iso-8859-1"?>
<!-- Generator: Adobe Illustrator 19.0.0, SVG Export Plug-In . SVG Version: 6.00 Build 0)  -->
<svg version="1.1" id="Capa_1" xmlns="http://www.w3.org/2000/svg" xmlns:xlink="http://www.w3.org/1999/xlink" x="0px" y="0px"
	 viewBox="0 0 512 512" style="enable-background:new 0 0 512 512;" xml:space="preserve">
<g>
	<path style="fill:#383838;" d="M256,276.326c-8.284,0-15,6.716-15,15v111.083c0,8.284,6.716,15,15,15c8.284,0,15-6.716,15-15
		V291.326C271,283.042,264.284,276.326,256,276.326z"/>
	<path style="fill:#383838;" d="M256,276.326c-8.284,0-15,6.716-15,15v111.083c0,8.284,6.716,15,15,15V276.326z"/>
</g>
<path style="fill:#7C8388;" d="M194.721,248.247l-97.873,52.318c-7.306,3.905-10.063,12.994-6.157,20.3
	c2.702,5.055,7.885,7.932,13.242,7.932c2.386,0,4.807-0.571,7.058-1.774l97.873-52.318c7.306-3.905,10.063-12.994,6.157-20.3
	C211.116,247.098,202.028,244.342,194.721,248.247z"/>
<path style="fill:#383838;" d="M415.152,300.565l-97.873-52.318c-7.307-3.906-16.395-1.149-20.3,6.157
	c-3.905,7.306-1.149,16.395,6.157,20.3l97.873,52.318c2.252,1.204,4.672,1.774,7.058,1.774c5.356,0,10.54-2.878,13.242-7.932
	C425.214,313.56,422.458,304.471,415.152,300.565z"/>
<path style="fill:#007A9F;" d="M256,387.409c-34.318,0-62.239,27.945-62.239,62.295S221.682,512,256,512
	s62.239-27.946,62.239-62.296S290.318,387.409,256,387.409z"/>
<path style="fill:#00BDF7;" d="M256,387.409c-34.318,0-62.239,27.945-62.239,62.295S221.682,512,256,512V387.409z"/>
<path style="fill:#FF9F00;" d="M335.226,44.266C318.15,16.548,288.533,0,256,0s-62.15,16.548-79.226,44.266
	c-17.103,27.762-18.558,61.724-3.891,90.848c0.254,0.505,0.537,0.995,0.846,1.467l69.719,106.531
	c2.771,4.234,7.491,6.786,12.551,6.786c5.06,0,9.78-2.552,12.551-6.786l69.719-106.531c0.31-0.473,0.592-0.962,0.846-1.467
	C353.783,105.989,352.329,72.027,335.226,44.266z"/>
<path style="fill:#FFD154;" d="M256,0c-32.533,0-62.15,16.548-79.226,44.266c-17.103,27.762-18.558,61.724-3.891,90.848
	c0.254,0.505,0.537,0.995,0.846,1.467l69.719,106.531c2.771,4.234,7.491,6.786,12.551,6.786V0H256z"/>
<path style="fill:#D2D2EA;" d="M256,48.566c-24.147,0-43.792,19.663-43.792,43.833s19.645,43.833,43.792,43.833
	s43.792-19.663,43.792-43.833S280.147,48.566,256,48.566z"/>
<path style="fill:#F5F5FD;" d="M256,48.566c-24.147,0-43.792,19.663-43.792,43.833s19.645,43.833,43.792,43.833V48.566z"/>
<path style="fill:#E63950;" d="M449.752,273.775c-34.318,0-62.239,27.945-62.239,62.295s27.92,62.296,62.239,62.296
	c34.319,0,62.239-27.946,62.239-62.296S484.07,273.775,449.752,273.775z"/>
<path style="fill:#FF637B;" d="M449.752,273.775c-34.318,0-62.239,27.945-62.239,62.295s27.92,62.296,62.239,62.296V273.775z"/>
<path style="fill:#009954;" d="M62.248,273.775c-34.318,0-62.239,27.945-62.239,62.295s27.92,62.296,62.239,62.296
	s62.239-27.946,62.239-62.296S96.567,273.775,62.248,273.775z"/>
<path style="fill:#00F085;" d="M62.248,273.775c-34.318,0-62.239,27.945-62.239,62.295s27.92,62.296,62.239,62.296V273.775z"/>
<g>
</g>
<g>
</g>
<g>
</g>
<g>
</g>
<g>
</g>
<g>
</g>
<g>
</g>
<g>
</g>
<g>
</g>
<g>
</g>
<g>
</g>
<g>
</g>
<g>
</g>
<g>
</g>
<g>
</g>
</svg>
