<?xml version="1.0" encoding="iso-8859-1"?>
<!-- Generator: Adobe Illustrator 19.0.0, SVG Export Plug-In . SVG Version: 6.00 Build 0)  -->
<svg version="1.1" id="Capa_1" xmlns="http://www.w3.org/2000/svg" xmlns:xlink="http://www.w3.org/1999/xlink" x="0px" y="0px"
	 viewBox="0 0 512.002 512.002" style="enable-background:new 0 0 512.002 512.002;" xml:space="preserve">
<g>
	<path style="fill:#6099B1;" d="M39.834,338.154c-3.276,0-6.576-1.056-9.354-3.234c-6.594-5.171-7.749-14.71-2.578-21.305
		l129.705-165.416c5.17-6.595,14.71-7.748,21.305-2.578c6.594,5.171,7.749,14.71,2.578,21.305L51.785,332.342
		C48.792,336.159,44.335,338.154,39.834,338.154z"/>
	<path style="fill:#6099B1;" d="M209.71,448.307c-2.829,0-5.692-0.79-8.242-2.444L31.587,335.711
		c-7.031-4.56-9.036-13.957-4.476-20.988c4.559-7.033,13.958-9.036,20.989-4.477l169.88,110.152
		c7.031,4.56,9.036,13.957,4.476,20.988C219.551,445.868,214.68,448.307,209.71,448.307z"/>
</g>
<path style="fill:#3B4A51;" d="M346.335,266.306c-2.394,0-4.822-0.568-7.085-1.765l-176.8-93.566
	c-7.408-3.92-10.234-13.103-6.314-20.511c3.92-7.407,13.101-10.236,20.511-6.314l176.8,93.566c7.408,3.92,10.234,13.103,6.314,20.51
	C357.037,263.371,351.777,266.306,346.335,266.306z"/>
<path style="fill:#6099B1;" d="M255.258,185.753l-78.611-41.603c-7.41-3.922-16.59-1.093-20.511,6.314
	c-3.92,7.408-1.094,16.59,6.314,20.511l92.808,49.116V185.753z"/>
<path style="fill:#3B4A51;" d="M346.335,266.304c-3.068,0-6.163-0.927-8.844-2.854c-6.805-4.891-8.357-14.374-3.465-21.178
	l123.82-172.257c4.89-6.805,14.372-8.357,21.178-3.465c6.805,4.891,8.357,14.374,3.465,21.178l-123.82,172.257
	C355.706,264.11,351.053,266.304,346.335,266.304z"/>
<circle style="fill:#F2A01C;" cx="209.72" cy="433.131" r="41.832"/>
<path style="fill:#FFC87D;" d="M209.723,474.962c-23.103,0-41.832-18.729-41.832-41.832s18.729-41.832,41.832-41.832V474.962z"/>
<circle style="fill:#F2A01C;" cx="41.832" cy="322.981" r="41.832"/>
<path style="fill:#FFC87D;" d="M41.832,364.81C18.729,364.81,0,346.082,0,322.979s18.729-41.832,41.832-41.832V364.81z"/>
<circle style="fill:#F2A01C;" cx="167.89" cy="158.831" r="41.832"/>
<path style="fill:#FFC87D;" d="M167.891,200.66c-23.103,0-41.832-18.729-41.832-41.832s18.729-41.832,41.832-41.832V200.66z"/>
<circle style="fill:#F2A01C;" cx="346.35" cy="251.131" r="41.832"/>
<path style="fill:#FFC87D;" d="M346.348,292.96c-23.103,0-41.832-18.729-41.832-41.832s18.729-41.832,41.832-41.832V292.96z"/>
<circle style="fill:#F2A01C;" cx="470.17" cy="78.871" r="41.832"/>
<path style="fill:#FFC87D;" d="M470.168,120.703c-23.103,0-41.832-18.729-41.832-41.832s18.729-41.832,41.832-41.832V120.703z"/>
<g>
</g>
<g>
</g>
<g>
</g>
<g>
</g>
<g>
</g>
<g>
</g>
<g>
</g>
<g>
</g>
<g>
</g>
<g>
</g>
<g>
</g>
<g>
</g>
<g>
</g>
<g>
</g>
<g>
</g>
</svg>
