<?xml version="1.0" encoding="iso-8859-1"?>
<!-- Generator: Adobe Illustrator 19.0.0, SVG Export Plug-In . SVG Version: 6.00 Build 0)  -->
<svg version="1.1" id="Layer_1" xmlns="http://www.w3.org/2000/svg" xmlns:xlink="http://www.w3.org/1999/xlink" x="0px" y="0px"
	 viewBox="0 0 512 512" style="enable-background:new 0 0 512 512;" xml:space="preserve">
<g>
	<polygon style="fill:#9F633C;" points="508,170 508,186 500,186 484,186 256,186 28,186 12,186 4,186 4,170 	"/>
	<polygon style="fill:#9F633C;" points="500,186 500,342 484,342 484,306 484,238 484,186 	"/>
</g>
<circle style="fill:#D6BA9B;" cx="370.8" cy="272" r="10"/>
<g>
	<path style="fill:#B78A6D;" d="M360.8,272c0,5.6,4.4,10,10,10s10-4.4,10-10s-4.4-10-10-10S360.8,266.4,360.8,272z M484,238v68H256
		v-68v-52h228V238z"/>
	<rect x="28" y="186" style="fill:#B78A6D;" width="228" height="52"/>
</g>
<circle style="fill:#D6BA9B;" cx="142.8" cy="272" r="10"/>
<path style="fill:#B78A6D;" d="M132.8,272c0,5.6,4.4,10,10,10s10-4.4,10-10s-4.4-10-10-10S132.8,266.4,132.8,272z M256,238v68H28
	v-68H256z"/>
<polygon style="fill:#9F633C;" points="28,306 28,342 12,342 12,186 28,186 28,238 "/>
<path d="M484,190H28c-2.4,0-4-1.6-4-4s1.6-4,4-4h456c2.4,0,4,1.6,4,4S486.4,190,484,190z"/>
<path d="M508,190h-8c-2.4,0-4-1.6-4-4s1.6-4,4-4h4v-8H8v8h4c2.4,0,4,1.6,4,4s-1.6,4-4,4H4c-2.4,0-4-1.6-4-4v-16c0-2.4,1.6-4,4-4h504
	c2.4,0,4,1.6,4,4v16C512,188.4,510.4,190,508,190z"/>
<path d="M28,346H12c-2.4,0-4-1.6-4-4V186c0-2.4,1.6-4,4-4s4,1.6,4,4v152h8V186c0-2.4,1.6-4,4-4s4,1.6,4,4v156
	C32,344.4,30.4,346,28,346z"/>
<path d="M500,346h-16c-2.4,0-4-1.6-4-4V186c0-2.4,1.6-4,4-4s4,1.6,4,4v152h8V186c0-2.4,1.6-4,4-4s4,1.6,4,4v156
	C504,344.4,502.4,346,500,346z"/>
<path d="M484,310H28c-2.4,0-4-1.6-4-4s1.6-4,4-4h456c2.4,0,4,1.6,4,4S486.4,310,484,310z"/>
<path d="M484,242H272c-2.4,0-4-1.6-4-4s1.6-4,4-4h212c2.4,0,4,1.6,4,4S486.4,242,484,242z"/>
<path d="M256,242H28c-2.4,0-4-1.6-4-4s1.6-4,4-4h228c2.4,0,4,1.6,4,4S258.4,242,256,242z"/>
<path d="M256,310c-2.4,0-4-1.6-4-4V186c0-2.4,1.6-4,4-4s4,1.6,4,4v120C260,308.4,258.4,310,256,310z"/>
<path d="M142.8,286c-7.6,0-14-6.4-14-14s6.4-14,14-14s14,6.4,14,14S150.4,286,142.8,286z M142.8,266c-3.2,0-6,2.8-6,6s2.8,6,6,6
	s6-2.8,6-6S146,266,142.8,266z"/>
<path d="M370.8,286c-7.6,0-14-6.4-14-14s6.4-14,14-14s14,6.4,14,14S378.4,286,370.8,286z M370.8,266c-3.2,0-6,2.8-6,6s2.8,6,6,6
	s6-2.8,6-6S374,266,370.8,266z"/>
<path d="M500,190h-16c-2.4,0-4-1.6-4-4s1.6-4,4-4h16c2.4,0,4,1.6,4,4S502.4,190,500,190z"/>
<path d="M29.6,190H12c-2.4,0-4-1.6-4-4s1.6-4,4-4h17.6c2.4,0,4,1.6,4,4S32,190,29.6,190z"/>
<g>
</g>
<g>
</g>
<g>
</g>
<g>
</g>
<g>
</g>
<g>
</g>
<g>
</g>
<g>
</g>
<g>
</g>
<g>
</g>
<g>
</g>
<g>
</g>
<g>
</g>
<g>
</g>
<g>
</g>
</svg>
