<?xml version="1.0" encoding="iso-8859-1"?>
<!-- Generator: Adobe Illustrator 19.0.0, SVG Export Plug-In . SVG Version: 6.00 Build 0)  -->
<svg version="1.1" id="Capa_1" xmlns="http://www.w3.org/2000/svg" xmlns:xlink="http://www.w3.org/1999/xlink" x="0px" y="0px"
	 viewBox="0 0 512 512" style="enable-background:new 0 0 512 512;" xml:space="preserve">
<g>
	<path style="fill:#EA9D2D;" d="M418.133,512h-17.067v-25.6h-204.8V512H179.2v-42.667h238.933V512z"/>
	<path style="fill:#EA9D2D;" d="M59.733,418.133H76.8V512H59.733V418.133z"/>
	<path style="fill:#EA9D2D;" d="M25.6,494.933h85.333V512H25.6V494.933z"/>
</g>
<path style="fill:#6FBBC6;" d="M59.733,337.067H76.8v51.2H59.733V337.067z"/>
<path style="fill:#3B869E;" d="M59.733,337.067H76.8v29.867H59.733V337.067z"/>
<circle style="fill:#EA9D2D;" cx="42.667" cy="294.4" r="17.067"/>
<path style="fill:#6FBBC6;" d="M64.964,305.297l26.539-39.799l14.199,9.463l-26.539,39.799L64.964,305.297z"/>
<path style="fill:#FBB540;" d="M341.333,128h34.133c70.69,0,128,57.31,128,128l0,0H213.333l0,0
	C213.333,185.31,270.643,128,341.333,128z"/>
<path style="fill:#C7463B;" d="M349.867,247.467h17.067V512h-17.067V247.467z"/>
<g>
	<path style="fill:#AA3C32;" d="M349.867,247.467h17.067V281.6h-17.067V247.467z"/>
	<path style="fill:#AA3C32;" d="M349.867,477.867h17.067V512h-17.067V477.867z"/>
</g>
<path style="fill:#DC4D41;" d="M412.8,256v-14.225c-0.094-29.807-10.325-58.701-29.013-81.92L358.4,128l-25.387,31.855
	c-18.688,23.219-28.919,52.113-29.013,81.92V256H412.8z"/>
<g>
	<path style="fill:#FBB540;" d="M174.933,477.867c-11.785,0-21.333-9.549-21.333-21.333s9.549-21.333,21.333-21.333h213.035
		l79.078-79.087c8.329-8.329,21.845-8.329,30.174,0s8.329,21.845,0,30.174l-85.333,85.333c-3.994,4.011-9.429,6.263-15.087,6.246
		H174.933z"/>
	<path style="fill:#FBB540;" d="M396.8,486.4H174.933c-16.495,0-29.867-13.372-29.867-29.867s13.372-29.867,29.867-29.867l0,0
		h209.502l76.578-76.587c11.819-11.281,30.421-11.281,42.24,0c11.657,11.665,11.657,30.566,0,42.232l-85.333,85.333
		C412.331,483.268,404.728,486.426,396.8,486.4z"/>
	<path style="fill:#FBB540;" d="M183.467,426.667h17.067v25.6h-17.067V426.667z"/>
	<path style="fill:#FBB540;" d="M217.6,426.667h17.067v25.6H217.6V426.667z"/>
	<path style="fill:#FBB540;" d="M251.733,426.667H268.8v25.6h-17.067V426.667z"/>
	<path style="fill:#FBB540;" d="M285.867,426.667h17.067v25.6h-17.067V426.667z"/>
	<path style="fill:#FBB540;" d="M320,426.667h17.067v25.6H320V426.667z"/>
	<g>
		<path id="SVGCleanerId_0" style="fill:#FBB540;" d="M405.333,418.133l8.533,8.533"/>
	</g>
	<path style="fill:#FBB540;" d="M393.267,418.133l12.066-12.066l20.599,20.599l-12.066,12.066L393.267,418.133z"/>
	<g>
		<path id="SVGCleanerId_1" style="fill:#FBB540;" d="M430.933,392.533l8.533,8.533"/>
	</g>
	<path style="fill:#FBB540;" d="M418.867,392.533l12.066-12.066l20.599,20.599l-12.066,12.066L418.867,392.533z"/>
	<g>
		<path id="SVGCleanerId_2" style="fill:#FBB540;" d="M456.533,366.933l8.533,8.533"/>
	</g>
	<path style="fill:#FBB540;" d="M444.467,366.933l12.066-12.066l20.599,20.599l-12.066,12.075L444.467,366.933z"/>
</g>
<circle style="fill:#EA9D2D;" cx="110.933" cy="102.4" r="42.667"/>
<path id="SVGCleanerId_3" style="fill:#FBB540;" d="M102.4,0h17.067v34.133H102.4V0z"/>
<g>
	<path id="SVGCleanerId_3_1_" style="fill:#FBB540;" d="M102.4,0h17.067v34.133H102.4V0z"/>
</g>
<path style="fill:#FBB540;" d="M153.088,48.213l24.132-24.132l12.066,12.066l-24.132,24.132L153.088,48.213z"/>
<path id="SVGCleanerId_4" style="fill:#FBB540;" d="M179.2,93.867h34.133v17.067H179.2V93.867z"/>
<g>
	<path id="SVGCleanerId_4_1_" style="fill:#FBB540;" d="M179.2,93.867h34.133v17.067H179.2V93.867z"/>
</g>
<g>
	<path style="fill:#FBB540;" d="M153.148,156.672l12.075-12.058l24.115,24.149l-12.075,12.058L153.148,156.672z"/>
	<path style="fill:#FBB540;" d="M25.011,30.114l12.066-12.066L61.21,42.18L49.143,54.246L25.011,30.114z"/>
	<path style="fill:#FBB540;" d="M0,93.867h34.133v17.067H0V93.867z"/>
	<path style="fill:#FBB540;" d="M102.4,170.667h17.067V204.8H102.4V170.667z"/>
	<path style="fill:#FBB540;" d="M32.495,168.781l24.132-24.141l12.066,12.066l-24.132,24.141L32.495,168.781z"/>
</g>
<path style="fill:#8ACED8;" d="M68.267,354.133c-14.14,0-25.6-11.46-25.6-25.6v-38.4h51.2v38.4
	C93.867,342.673,82.406,354.133,68.267,354.133z"/>
<g>
	<path style="fill:#EA9D2D;" d="M183.467,426.667h17.067v25.6h-17.067V426.667z"/>
	<path style="fill:#EA9D2D;" d="M217.6,426.667h17.067v25.6H217.6V426.667z"/>
	<path style="fill:#EA9D2D;" d="M251.733,426.667H268.8v25.6h-17.067V426.667z"/>
	<path style="fill:#EA9D2D;" d="M285.867,426.667h17.067v25.6h-17.067V426.667z"/>
	<path style="fill:#EA9D2D;" d="M320,426.667h17.067v25.6H320V426.667z"/>
	<g>
		<path id="SVGCleanerId_0_1_" style="fill:#EA9D2D;" d="M405.333,418.133l8.533,8.533"/>
	</g>
	<path style="fill:#EA9D2D;" d="M393.267,418.133l12.066-12.066l20.599,20.599l-12.066,12.066L393.267,418.133z"/>
	<g>
		<path id="SVGCleanerId_1_1_" style="fill:#EA9D2D;" d="M430.933,392.533l8.533,8.533"/>
	</g>
	<path style="fill:#EA9D2D;" d="M418.867,392.533l12.066-12.066l20.599,20.599l-12.066,12.066L418.867,392.533z"/>
	<g>
		<path id="SVGCleanerId_2_1_" style="fill:#EA9D2D;" d="M456.533,366.933l8.533,8.533"/>
	</g>
	<path style="fill:#EA9D2D;" d="M444.467,366.933l12.066-12.066l20.599,20.599l-12.066,12.075L444.467,366.933z"/>
	<path style="fill:#EA9D2D;" d="M354.133,426.667H371.2v25.6h-17.067V426.667z"/>
</g>
<path style="fill:#DC4D41;" d="M25.6,384h85.333c9.429,0,17.067,7.637,17.067,17.067l0,0c0,9.429-7.637,17.067-17.067,17.067H25.6
	c-9.429,0-17.067-7.637-17.067-17.067l0,0C8.533,391.637,16.171,384,25.6,384z"/>
<path style="fill:#D68F29;" d="M59.733,418.133H76.8v25.6H59.733V418.133z"/>
<path style="fill:#C7463B;" d="M128,401.067H8.533c0,9.429,7.637,17.067,17.067,17.067h85.333
	C120.363,418.133,128,410.496,128,401.067z"/>
<path d="M110.933,426.667H25.6c-14.114,0-25.6-11.486-25.6-25.6s11.486-25.6,25.6-25.6h85.333c14.114,0,25.6,11.486,25.6,25.6
	S125.047,426.667,110.933,426.667z M25.6,392.533c-4.702,0-8.533,3.823-8.533,8.533s3.831,8.533,8.533,8.533h85.333
	c4.702,0,8.533-3.823,8.533-8.533s-3.831-8.533-8.533-8.533H25.6z"/>
<rect x="59.733" y="418.133" width="17.067" height="93.867"/>
<rect x="25.6" y="494.933" width="85.333" height="17.067"/>
<rect x="59.733" y="337.067" width="17.067" height="51.2"/>
<path d="M51.2,320h-8.533c-14.114,0-25.6-11.486-25.6-25.6c0-14.114,11.486-25.6,25.6-25.6s25.6,11.486,25.6,25.6v8.533H51.2V294.4
	c0-4.71-3.831-8.533-8.533-8.533s-8.533,3.823-8.533,8.533s3.831,8.533,8.533,8.533H51.2V320z"/>
<rect x="65.419" y="279.481" transform="matrix(-0.5547 0.8321 -0.8321 -0.5547 374.5193 375.5851)" width="42.668" height="17.067"/>
<path d="M512,264.533H204.8V256c0-75.281,61.252-136.533,136.533-136.533h34.133C450.748,119.467,512,180.719,512,256V264.533z
	 M222.165,247.467h272.469c-4.395-61.901-56.166-110.933-119.168-110.933h-34.133C278.332,136.533,226.56,185.566,222.165,247.467z"
	/>
<rect x="349.867" y="469.333" width="17.067" height="42.667"/>
<rect x="349.867" y="119.467" width="17.067" height="324.267"/>
<path d="M304,264.533c-4.719,0-8.533-3.814-8.533-8.533v-14.225c0.102-31.642,11.076-62.626,30.899-87.27l25.361-31.821
	c2.927-3.686,8.311-4.292,11.989-1.357c3.686,2.935,4.292,8.311,1.357,11.989l-25.387,31.855
	c-17.442,21.666-27.076,48.87-27.162,76.629V256C312.533,260.719,308.719,264.533,304,264.533z"/>
<path d="M412.8,264.533c-4.719,0-8.533-3.814-8.533-8.533v-14.225c-0.085-27.733-9.719-54.938-27.136-76.57l-25.412-31.889
	c-2.935-3.686-2.321-9.054,1.357-11.989c3.678-2.935,9.062-2.33,11.989,1.357l25.387,31.855
	c19.797,24.61,30.771,55.595,30.874,87.211V256C421.333,260.719,417.519,264.533,412.8,264.533z"/>
<path d="M396.86,486.4c-0.026,0-0.06,0-0.085,0H174.933c-16.469,0-29.867-13.397-29.867-29.867s13.397-29.867,29.867-29.867h209.502
	l76.587-76.587c11.264-11.281,30.967-11.281,42.231,0c5.641,5.641,8.747,13.133,8.747,21.12s-3.106,15.479-8.747,21.12
	l-85.333,85.333C412.39,483.209,404.719,486.4,396.86,486.4z M174.933,443.733c-7.057,0-12.8,5.743-12.8,12.8s5.743,12.8,12.8,12.8
	H396.8c0.009,0,0.026,0,0.034,0c3.379,0,6.639-1.357,9.003-3.738l85.35-85.35c2.415-2.415,3.746-5.632,3.746-9.045
	c0-3.413-1.331-6.63-3.746-9.054c-4.83-4.83-13.269-4.83-18.099,0l-81.587,81.587H174.933z"/>
<path style="fill:#FFFFFF;" d="M192,435.2v8.533"/>
<rect x="183.467" y="426.667" width="17.067" height="25.6"/>
<path style="fill:#FFFFFF;" d="M226.133,435.2v8.533"/>
<rect x="217.6" y="426.667" width="17.067" height="25.6"/>
<path style="fill:#FFFFFF;" d="M260.267,435.2v8.533"/>
<rect x="251.733" y="426.667" width="17.067" height="25.6"/>
<path style="fill:#FFFFFF;" d="M294.4,435.2v8.533"/>
<rect x="285.867" y="426.667" width="17.067" height="25.6"/>
<path style="fill:#FFFFFF;" d="M328.533,435.2v8.533"/>
<rect x="320" y="426.667" width="17.067" height="25.6"/>
<path style="fill:#FFFFFF;" d="M362.667,435.2v8.533"/>
<rect x="354.133" y="426.667" width="17.067" height="25.6"/>
<g>
	<path id="SVGCleanerId_0_2_" style="fill:#FFFFFF;" d="M405.333,418.133l8.533,8.533"/>
</g>
<rect x="401.06" y="407.839" transform="matrix(-0.7071 0.7071 -0.7071 -0.7071 997.9058 431.465)" width="17.067" height="29.133"/>
<g>
	<path id="SVGCleanerId_1_2_" style="fill:#FFFFFF;" d="M430.933,392.533l8.533,8.533"/>
</g>
<rect x="426.66" y="382.234" transform="matrix(-0.7071 0.7071 -0.7071 -0.7071 1023.5022 369.6524)" width="17.067" height="29.133"/>
<g>
	<path id="SVGCleanerId_2_2_" style="fill:#FFFFFF;" d="M456.533,366.933l8.533,8.533"/>
</g>
<rect x="452.26" y="356.638" transform="matrix(-0.7071 0.7071 -0.7071 -0.7071 1049.1046 307.8543)" width="17.067" height="29.133"/>
<polygon points="418.133,512 401.067,512 401.067,486.4 196.267,486.4 196.267,512 179.2,512 179.2,469.333 418.133,469.333 "/>
<path d="M110.933,153.6c-28.237,0-51.2-22.963-51.2-51.2s22.963-51.2,51.2-51.2s51.2,22.963,51.2,51.2S139.17,153.6,110.933,153.6z
	 M110.933,68.267C92.109,68.267,76.8,83.575,76.8,102.4s15.309,34.133,34.133,34.133s34.133-15.309,34.133-34.133
	S129.758,68.267,110.933,68.267z"/>
<rect id="SVGCleanerId_5" x="102.4" width="17.067" height="34.133"/>
<g>
	<rect id="SVGCleanerId_5_1_" x="102.4" width="17.067" height="34.133"/>
</g>
<rect x="154.123" y="33.638" transform="matrix(-0.7069 0.7074 -0.7074 -0.7069 322.0284 -49.1108)" width="34.135" height="17.068"/>
<rect id="SVGCleanerId_6" x="179.2" y="93.867" width="34.133" height="17.067"/>
<g>
	<rect id="SVGCleanerId_6_1_" x="179.2" y="93.867" width="34.133" height="17.067"/>
</g>
<rect x="162.738" y="145.646" transform="matrix(-0.7071 0.7071 -0.7071 -0.7071 407.4342 156.6607)" width="17.067" height="34.133"/>
<rect x="34.578" y="19.073" transform="matrix(-0.7074 0.7068 -0.7068 -0.7074 99.1518 31.2334)" width="17.067" height="34.133"/>
<rect y="93.867" width="34.133" height="17.067"/>
<rect x="102.4" y="170.667" width="17.067" height="34.133"/>
<rect x="33.526" y="154.197" transform="matrix(-0.7071 0.7071 -0.7071 -0.7071 201.4345 242.0244)" width="34.133" height="17.067"/>
<path d="M68.267,354.133c-14.114,0-25.6-11.486-25.6-25.6v-38.4h51.2v38.4C93.867,342.647,82.381,354.133,68.267,354.133z
	 M59.733,307.2v21.333c0,4.71,3.831,8.533,8.533,8.533c4.702,0,8.533-3.823,8.533-8.533V307.2H59.733z"/>
<g>
</g>
<g>
</g>
<g>
</g>
<g>
</g>
<g>
</g>
<g>
</g>
<g>
</g>
<g>
</g>
<g>
</g>
<g>
</g>
<g>
</g>
<g>
</g>
<g>
</g>
<g>
</g>
<g>
</g>
</svg>
