<?xml version="1.0" encoding="iso-8859-1"?>
<!-- Generator: Adobe Illustrator 19.0.0, SVG Export Plug-In . SVG Version: 6.00 Build 0)  -->
<svg version="1.1" id="Capa_1" xmlns="http://www.w3.org/2000/svg" xmlns:xlink="http://www.w3.org/1999/xlink" x="0px" y="0px"
	 viewBox="0 0 480.204 480.204" style="enable-background:new 0 0 480.204 480.204;" xml:space="preserve">
<path style="fill:#A1A7EF;" d="M160.102,424.204c-26.51,0-48,21.49-48,48l0,0h256c0-26.51-21.49-48-48-48l0,0H160.102z"/>
<path style="fill:#A8ADF0;" d="M240.102,296.204c-5.346-0.02-10.688-0.333-16-0.936v128.936h32V295.268
	C250.79,295.871,245.448,296.184,240.102,296.204z"/>
<path style="fill:#E6E7E8;" d="M188.422,242.124c-4.559,7.57-14.391,10.011-21.961,5.453c-1.121-0.675-2.155-1.486-3.079-2.413
	l-16.24-16.24c-6.259-6.238-6.277-16.368-0.039-22.627c0.924-0.927,1.958-1.737,3.079-2.413l61.52-36.96
	c-4.8-9.226-4.8-20.214,0-29.44l-61.52-36.96c-7.57-4.559-10.011-14.391-5.453-21.961c0.675-1.121,1.485-2.155,2.413-3.079
	l16.24-16.24c6.238-6.259,16.368-6.277,22.627-0.039c0.927,0.924,1.737,1.958,2.413,3.079l36.96,61.52c9.226-4.8,20.214-4.8,29.44,0
	l36.96-61.52c4.559-7.57,14.391-10.011,21.961-5.453c1.121,0.675,2.155,1.485,3.079,2.413l16.24,16.24
	c6.259,6.238,6.277,16.368,0.039,22.627c-0.924,0.927-1.958,1.737-3.079,2.413l-61.52,36.96c4.8,9.226,4.8,20.214,0,29.44
	l61.52,36.96c7.57,4.559,10.011,14.391,5.453,21.961c-0.675,1.121-1.486,2.155-2.413,3.079l-16.24,16.24
	c-6.238,6.259-16.368,6.277-22.627,0.039c-0.927-0.924-1.737-1.958-2.413-3.079l-35.68-59.44v112.584
	c79.037-8.837,135.945-80.072,127.108-159.108C374.374,57.123,303.138,0.215,224.102,9.051S88.157,89.123,96.994,168.16
	c7.475,66.86,60.249,119.633,127.108,127.108V182.684L188.422,242.124z"/>
<path style="fill:#A8ADF0;" d="M256.102,295.268V182.684l-1.28-2.08c-9.226,4.8-20.214,4.8-29.44,0l-1.28,2.08v112.584
	C234.732,296.516,245.472,296.516,256.102,295.268z"/>
<g>
	<path style="fill:#A1A7EF;" d="M225.382,123.804l-36.96-61.52c-4.559-7.57-14.391-10.011-21.961-5.453
		c-1.121,0.675-2.155,1.485-3.079,2.413l-16.24,16.24c-6.259,6.238-6.277,16.368-0.039,22.627c0.924,0.927,1.958,1.737,3.079,2.413
		l61.52,36.96C214.754,131.631,219.529,126.856,225.382,123.804z"/>
	<path style="fill:#A1A7EF;" d="M211.702,166.924l-61.52,36.96c-7.57,4.559-10.011,14.391-5.453,21.961
		c0.675,1.121,1.485,2.155,2.413,3.079l16.24,16.24c6.238,6.259,16.368,6.277,22.627,0.039c0.927-0.924,1.737-1.958,2.413-3.079
		l35.68-59.44l1.28-2.08c-0.4-0.24-0.88-0.48-1.28-0.72C218.808,176.847,214.502,172.347,211.702,166.924L211.702,166.924z"/>
	<path style="fill:#A1A7EF;" d="M316.822,245.164l16.24-16.24c6.259-6.238,6.277-16.368,0.039-22.627
		c-0.924-0.927-1.958-1.737-3.079-2.413l-61.52-36.96c-2.8,5.423-7.106,9.923-12.4,12.96c-0.4,0.24-0.88,0.48-1.28,0.72l1.28,2.08
		l35.68,59.44c4.559,7.57,14.391,10.011,21.961,5.453C314.864,246.901,315.898,246.091,316.822,245.164L316.822,245.164z"/>
	<path style="fill:#A1A7EF;" d="M268.502,137.484l61.52-36.96c7.57-4.559,10.011-14.391,5.453-21.961
		c-0.675-1.121-1.486-2.155-2.413-3.079l-16.24-16.24c-6.237-6.259-16.368-6.277-22.627-0.039c-0.927,0.924-1.737,1.958-2.413,3.079
		l-36.96,61.52C260.675,126.856,265.449,131.631,268.502,137.484z"/>
</g>
<path style="fill:#2E3192;" d="M268.502,166.924c4.8-9.226,4.8-20.214,0-29.44c-3.052-5.853-7.827-10.628-13.68-13.68
	c-9.226-4.8-20.214-4.8-29.44,0c-5.853,3.052-10.628,7.827-13.68,13.68c-7.876,15.175-2.411,33.86,12.4,42.4
	c0.4,0.24,0.88,0.48,1.28,0.72c9.226,4.8,20.214,4.8,29.44,0c0.4-0.24,0.88-0.48,1.28-0.72
	C261.396,176.847,265.702,172.347,268.502,166.924L268.502,166.924z"/>
<path d="M320.102,416.204h-56V302.116c82.894-13.255,139.348-91.199,126.093-174.093C376.94,45.128,298.996-11.326,216.102,1.929
	S76.754,93.128,90.009,176.023c10.371,64.861,61.232,115.722,126.093,126.093v114.088h-56c-30.911,0.04-55.96,25.089-56,56
	c0,4.418,3.582,8,8,8h256c4.418,0,8-3.582,8-8C376.062,441.292,351.013,416.243,320.102,416.204z M104.102,152.204
	C104.039,77.093,164.878,16.153,239.988,16.09c75.111-0.063,136.051,60.776,136.114,135.886
	c0.055,65.896-47.138,122.351-112,133.979v-74.4l20.8,34.672c3.805,6.333,10.327,10.548,17.664,11.416
	c0.98,0.118,1.965,0.177,2.952,0.176c6.355,0.008,12.45-2.523,16.928-7.032l16.24-16.24c9.383-9.362,9.399-24.558,0.037-33.941
	c-1.384-1.387-2.934-2.6-4.613-3.611L278.366,163.5c2.272-7.381,2.272-15.275,0-22.656l55.776-33.44
	c11.352-6.843,15.006-21.593,8.163-32.945c-1.009-1.674-2.219-3.218-3.603-4.599l-16.2-16.272
	c-9.362-9.383-24.558-9.399-33.941-0.037c-1.387,1.384-2.6,2.934-3.611,4.613l-33.512,55.776c-7.393-2.112-15.231-2.112-22.624,0
	l-33.512-55.792c-6.843-11.352-21.593-15.006-32.945-8.163c-1.674,1.009-3.219,2.219-4.599,3.603l-16.24,16.24
	c-9.383,9.362-9.399,24.558-0.037,33.941c1.384,1.387,2.934,2.6,4.613,3.611l55.744,33.496c-2.272,7.384-2.272,15.28,0,22.664
	l-55.792,33.464c-11.352,6.843-15.006,21.593-8.163,32.945c1.009,1.674,2.219,3.219,3.603,4.599l16.24,16.24
	c4.479,4.509,10.573,7.04,16.928,7.032c0.987,0.001,1.972-0.058,2.952-0.176c7.345-0.856,13.88-5.066,17.696-11.4l20.8-34.688v74.4
	C151.352,274.295,104.209,217.995,104.102,152.204L104.102,152.204z M214.582,183.004l-33.008,54.992
	c-1.272,2.109-3.449,3.509-5.896,3.792c-2.449,0.326-4.908-0.518-6.64-2.28l-16.24-16.24c-3.132-3.154-3.115-8.249,0.039-11.382
	c0.44-0.437,0.929-0.822,1.457-1.146l54.992-33.032c0.216,0.256,0.496,0.456,0.712,0.712c1.167,1.331,2.421,2.585,3.752,3.752
	C214.046,182.428,214.278,182.756,214.582,183.004L214.582,183.004z M251.134,130.9c4.399,2.313,7.988,5.914,10.288,10.32
	c3.587,6.915,3.572,15.146-0.04,22.048c-1.014,1.954-2.301,3.754-3.824,5.344c-0.072,0.08-0.144,0.168-0.224,0.248
	c-1.513,1.534-3.221,2.863-5.08,3.952c-0.208,0.128-0.376,0.272-0.592,0.392c-0.072,0-0.328,0.176-0.568,0.32
	c-5.173,2.53-11.052,3.224-16.672,1.968c-1.841-0.432-3.62-1.093-5.296-1.968l-1.016-0.576
	c-11.106-6.396-15.203-20.403-9.296-31.776c6.096-11.762,20.57-16.359,32.336-10.272L251.134,130.9z M265.598,121.396l33.032-54.984
	c2.319-3.792,7.273-4.986,11.065-2.666c0.534,0.326,1.027,0.714,1.471,1.154l16.24,16.24c3.132,3.154,3.113,8.25-0.041,11.382
	c-0.444,0.441-0.938,0.828-1.471,1.154L270.91,126.7c-0.312-0.368-0.704-0.664-1.032-1.024c-1.026-1.154-2.118-2.246-3.272-3.272
	C266.254,122.084,265.966,121.7,265.598,121.396z M266.438,182.196c1.339-1.168,2.597-2.424,3.768-3.76
	c0.216-0.248,0.496-0.448,0.712-0.704l54.976,33.024c3.792,2.319,4.986,7.273,2.666,11.065c-0.326,0.534-0.714,1.027-1.154,1.471
	l-16.24,16.24c-3.154,3.132-8.249,3.115-11.382-0.039c-0.437-0.44-0.822-0.929-1.146-1.457l-33.024-55.016
	c0.304-0.272,0.536-0.592,0.824-0.848L266.438,182.196z M213.574,122.452c-1.154,1.026-2.246,2.118-3.272,3.272
	c-0.32,0.352-0.704,0.64-1.008,1L154.31,93.7c-3.792-2.319-4.986-7.273-2.666-11.065c0.326-0.534,0.714-1.027,1.154-1.471
	l16.24-16.24c1.498-1.498,3.529-2.341,5.648-2.344c0.332-0.003,0.663,0.019,0.992,0.064c2.441,0.28,4.615,1.674,5.888,3.776
	l33.032,55c-0.368,0.288-0.664,0.68-1.024,1.008L213.574,122.452z M232.902,191.476c4.751,0.968,9.649,0.968,14.4,0
	c0.264-0.048,0.536,0,0.8-0.08v96.4c-2.664,0.16-5.296,0.408-8,0.408s-5.336-0.248-8-0.408v-96.392
	C232.358,191.452,232.638,191.404,232.902,191.476L232.902,191.476z M232.102,303.796c2.664,0.144,5.296,0.408,8,0.408
	c2.704,0,5.336-0.264,8-0.408v112.408h-16V303.796z M120.902,464.204c3.825-18.613,20.198-31.979,39.2-32h160
	c19.002,0.021,35.375,13.387,39.2,32H120.902z"/>
<g>
</g>
<g>
</g>
<g>
</g>
<g>
</g>
<g>
</g>
<g>
</g>
<g>
</g>
<g>
</g>
<g>
</g>
<g>
</g>
<g>
</g>
<g>
</g>
<g>
</g>
<g>
</g>
<g>
</g>
</svg>
