<?xml version="1.0" encoding="iso-8859-1"?>
<!-- Generator: Adobe Illustrator 19.0.0, SVG Export Plug-In . SVG Version: 6.00 Build 0)  -->
<svg version="1.1" id="Capa_1" xmlns="http://www.w3.org/2000/svg" xmlns:xlink="http://www.w3.org/1999/xlink" x="0px" y="0px"
	 viewBox="0 0 512.001 512.001" style="enable-background:new 0 0 512.001 512.001;" xml:space="preserve">
<g>
	<g transform="translate(1 6)">
		<rect x="161.134" y="275.601" style="fill:#7F8C8D;" width="51.2" height="119.467"/>
		<path style="fill:#607D8B;" d="M442.736,250.001l-0.002,86.187c0.102,13.374-3.986,26.444-11.691,37.376l-98.56,21.504H86.126
			c-10.579-0.167-19.022-8.876-18.859-19.456l-0.002-125.611H442.736z"/>
		<path style="fill:#CFD8DC;" d="M417.136,250.001l-0.002,86.187c0.102,13.374-3.986,26.444-11.691,37.376l-98.56,21.504H86.126
			c-10.579-0.167-19.022-8.876-18.859-19.456l-0.002-125.611H417.136z"/>
		<path style="fill:#283593;" d="M109.934,79.334h290.133c23.564,0,42.667,19.103,42.667,42.667v34.133H67.267v-34.133
			C67.267,98.436,86.37,79.334,109.934,79.334z"/>
		<path style="fill:#3F51B5;" d="M109.934,79.334h264.533c23.564,0,42.667,19.103,42.667,42.667v34.133H67.267v-34.133
			C67.267,98.436,86.37,79.334,109.934,79.334z"/>
		<path style="fill:#607D8B;" d="M161.134,45.201h51.2c14.138,0,25.6,11.462,25.6,25.6v8.533h-102.4v-8.533
			C135.534,56.662,146.995,45.201,161.134,45.201z"/>
		<polyline style="fill:#1566C0;" points="255,275.601 485.4,275.601 485.4,224.401 226.2,224.401 82.2,224.401 24.6,224.401 
			24.6,275.601 101.4,275.601 		"/>
		<polyline style="fill:#2296F3;" points="242.2,275.601 459.8,275.601 459.8,224.401 214.996,224.401 79,224.401 24.6,224.401 
			24.6,275.601 97.134,275.601 		"/>
		<path style="fill:#607D8B;" d="M289.134,309.734H383c9.414,0.028,17.039,7.652,17.067,17.067v34.645l-67.584,33.621h-34.816
			L289.134,309.734z"/>
		<g>
			<path style="fill:#FEC108;" d="M272.067,395.067v-68.267c0-9.426,7.641-17.067,17.067-17.067s17.067,7.641,17.067,17.067v68.267
				H272.067z"/>
			<rect x="118.467" y="292.667" style="fill:#FEC108;" width="51.2" height="102.4"/>
		</g>
		<path style="fill:#FFB301;" d="M255,241.467v41.472c-0.152,5.509-4.73,9.859-10.24,9.728H111.64
			c-5.51,0.131-10.088-4.219-10.24-9.728v-41.472H255z"/>
		<rect x="24.6" y="139.067" style="fill:#1566C0;" width="460.8" height="102.4"/>
		<rect x="24.6" y="139.067" style="fill:#2296F3;" width="435.2" height="102.4"/>
		<path style="fill:#FFB301;" d="M237.934,181.734v59.733H118.467v-59.733c0.014-4.707,3.826-8.519,8.533-8.533h102.4
			C234.107,173.215,237.92,177.027,237.934,181.734z"/>
		<g>
			<path style="fill:#FEC108;" d="M229.4,241.467v41.472c-0.152,5.509-4.73,9.859-10.24,9.728H111.64
				c-5.51,0.131-10.088-4.219-10.24-9.728v-41.472H229.4z"/>
			<path style="fill:#FEC108;" d="M212.334,181.734v59.733h-93.867v-59.733c0.014-4.707,3.826-8.519,8.533-8.533h76.8
				C208.507,173.215,212.32,177.027,212.334,181.734z"/>
		</g>
		<path style="fill:#FFFFFF;" d="M280.6,173.201h42.667c4.713,0,8.533,3.82,8.533,8.533v17.067c0,4.713-3.82,8.533-8.533,8.533
			H280.6c-4.713,0-8.533-3.821-8.533-8.533v-17.067C272.067,177.021,275.888,173.201,280.6,173.201z"/>
		<circle style="fill:#37474F;" cx="391.534" cy="429.201" r="68.267"/>
		<ellipse style="fill:#607D8B;" cx="378.734" cy="429.201" rx="55.467" ry="68.267"/>
		<circle style="fill:#CFD8DC;" cx="391.534" cy="429.201" r="25.6"/>
		<rect x="169.667" y="292.667" style="fill:#607D8B;" width="42.667" height="102.4"/>
	</g>
	<g>
		<path d="M392.534,401.067c-18.851,0-34.133,15.282-34.133,34.133c0,18.851,15.282,34.133,34.133,34.133
			c18.851,0,34.133-15.282,34.133-34.133C426.646,416.358,411.376,401.089,392.534,401.067z M392.534,452.267
			c-9.426,0-17.067-7.641-17.067-17.067s7.641-17.067,17.067-17.067s17.067,7.641,17.067,17.067
			C409.591,444.622,401.956,452.258,392.534,452.267z"/>
		<path d="M428.8,0.001H83.2c-36.318-0.146-65.902,29.132-66.133,65.45v331.863c0.173,25.19,20.3,45.7,45.483,46.348l20.697,49.673
			C87.811,504.616,98.764,512,110.934,512s23.124-7.385,27.688-18.667l20.666-49.6h156.949c4.422,39.833,38.754,69.554,78.81,68.224
			c40.056-1.33,72.341-33.263,74.111-73.301c15.713-7.804,25.685-23.799,25.775-41.343V65.451
			C494.703,29.133,465.119-0.146,428.8,0.001z M136.534,93.867h264.533c18.842,0.022,34.112,15.291,34.133,34.133v8.533H76.8v-8.533
			c0.022-18.842,15.291-34.112,34.133-34.133H136.534z M145.067,76.801c0.009-9.422,7.645-17.057,17.067-17.067h51.2
			c9.422,0.009,17.057,7.645,17.067,17.067H145.067z M68.267,153.601h409.6v85.333h-230.4v-51.2
			c-0.009-9.422-7.645-17.057-17.067-17.067H128c-9.422,0.009-17.057,7.645-17.067,17.067v51.2h-76.8v-85.333H68.267z
			 M477.867,273.067H264.534v-17.067h213.333V273.067z M429.214,367.746c-6.168-3.346-12.768-5.826-19.613-7.368v-27.578
			c-0.015-14.132-11.468-25.585-25.6-25.6h-93.867c-14.132,0.015-25.585,11.468-25.6,25.6v59.733h-42.667v-85.333h23.892
			c9.732,0.088,17.875-7.365,18.648-17.067h170.793l0,52.054C435.22,351.057,433.17,359.809,429.214,367.746z M328.721,392.534
			h-12.987v-59.733c-0.029-2.914-0.561-5.801-1.572-8.533H384c4.71,0.006,8.527,3.823,8.533,8.533v25.6
			C366.898,358.412,342.96,371.217,328.721,392.534z M281.6,392.534v-59.733c0-4.713,3.82-8.533,8.533-8.533s8.533,3.82,8.533,8.533
			v59.733H281.6z M179.2,392.534v-17.067h25.6v17.067H179.2z M87.126,392.534c-5.862-0.176-10.478-5.059-10.325-10.921v-91.479
			h17.193c0.726,9.031,7.908,16.195,16.94,16.898v85.502H87.126z M34.134,256.001h59.733v17.067H34.134V256.001z M179.2,213.334
			c4.713,0,8.533-3.821,8.533-8.533v-17.067H230.4v51.2H128v-51.2h42.667v17.067C170.667,209.513,174.488,213.334,179.2,213.334z
			 M119.467,256.001H128v17.067c0,4.713,3.821,8.533,8.533,8.533c4.713,0,8.533-3.82,8.533-8.533v-17.067h25.6v17.067
			c0,4.713,3.821,8.533,8.533,8.533c4.713,0,8.533-3.82,8.533-8.533v-17.067h25.6v17.067c0,4.713,3.82,8.533,8.533,8.533
			s8.533-3.82,8.533-8.533v-17.067h17.067v32.912c0,0.579-0.7,1.221-1.708,1.221H112.642c-1.009,0-1.708-0.642-1.708-1.221v-32.912
			H119.467z M179.2,341.334h25.6v17.067h-25.6V341.334z M204.8,324.267h-25.6v-17.067h25.6V324.267z M128,307.201h34.133v85.333H128
			V307.201z M34.134,397.313V290.134h25.6v91.479c-0.146,15.285,12.107,27.805,27.392,27.988h233.089
			c-1.979,5.517-3.314,11.243-3.978,17.067H64C47.655,426.789,34.295,413.658,34.134,397.313z M122.871,486.767
			c-1.914,4.924-6.655,8.167-11.937,8.167c-5.283,0-10.023-3.243-11.937-8.167l-17.931-43.034h59.736L122.871,486.767z
			 M392.534,494.934c-24.16,0-45.941-14.554-55.186-36.874c-9.246-22.321-4.135-48.013,12.949-65.097
			c17.084-17.084,42.776-22.194,65.097-12.949c22.321,9.246,36.874,31.027,36.874,55.186
			C452.23,468.175,425.508,494.897,392.534,494.934z M467.652,419.281c-3.462-16.173-12.056-30.796-24.501-41.69
			c5.962-10.849,9.097-23.024,9.117-35.403v-52.054h25.6v107.179C477.814,405.772,474.086,413.789,467.652,419.281z
			 M477.867,136.534h-25.6v-8.533c-0.031-28.264-22.936-51.169-51.2-51.2h-153.6c-0.022-18.842-15.291-34.112-34.133-34.133h-51.2
			C143.291,42.689,128.022,57.958,128,76.801h-17.067c-28.264,0.031-51.169,22.936-51.2,51.2v8.533h-25.6V65.451
			c0.221-26.897,22.17-48.54,49.067-48.383h345.6c26.897-0.157,48.846,21.487,49.067,48.383V136.534z"/>
		<path d="M281.6,221.867h42.667c9.422-0.009,17.057-7.645,17.067-17.067v-17.067c-0.009-9.422-7.645-17.057-17.067-17.067H281.6
			c-9.422,0.009-17.057,7.645-17.067,17.067v17.067C264.543,214.222,272.179,221.858,281.6,221.867z M281.6,187.734h42.667
			l0.012,17.067H281.6V187.734z"/>
	</g>
</g>
<g>
</g>
<g>
</g>
<g>
</g>
<g>
</g>
<g>
</g>
<g>
</g>
<g>
</g>
<g>
</g>
<g>
</g>
<g>
</g>
<g>
</g>
<g>
</g>
<g>
</g>
<g>
</g>
<g>
</g>
</svg>
