<?xml version="1.0" encoding="iso-8859-1"?>
<!-- Generator: Adobe Illustrator 19.0.0, SVG Export Plug-In . SVG Version: 6.00 Build 0)  -->
<svg version="1.1" id="Capa_1" xmlns="http://www.w3.org/2000/svg" xmlns:xlink="http://www.w3.org/1999/xlink" x="0px" y="0px"
	 viewBox="0 0 480 480" style="enable-background:new 0 0 480 480;" xml:space="preserve">
<path style="fill:#D1E3EE;" d="M144,8h192v144H144V8z"/>
<path style="fill:#C4414B;" d="M144,104h48v48h-48V104z"/>
<path style="fill:#EA676B;" d="M192,104h48v48h-48V104z"/>
<path style="fill:#FFD884;" d="M240,104h48v48h-48V104z"/>
<path style="fill:#1D5C88;" d="M288,104h48v48h-48V104z"/>
<path style="fill:#9FC8DD;" d="M144,56h48v48h-48V56z"/>
<path style="fill:#FFD884;" d="M192,56h48v48h-48V56z"/>
<path style="fill:#EA676B;" d="M240,56h48v48h-48V56z"/>
<g>
	<path style="fill:#2BB3CE;" d="M288,56h48v48h-48V56z"/>
	<path style="fill:#2BB3CE;" d="M144,8h48v48h-48V8z"/>
</g>
<path style="fill:#EA676B;" d="M192,8h48v48h-48V8z"/>
<path style="fill:#FFD884;" d="M240,8h48v48h-48V8z"/>
<path style="fill:#B4833F;" d="M288,8h48v48h-48V8z"/>
<path style="fill:#1D5C88;" d="M424,344h-32c8.837,0,16-7.163,16-16s-7.163-16-16-16H72c-8.837,0-16,7.163-16,16s7.163,16,16,16h72
	c8.837,0,16,7.163,16,16s-7.163,16-16,16H56c-8.837,0-16,7.163-16,16s7.163,16,16,16h56v14.928
	c0.004,9.427,7.645,17.068,17.072,17.072h40.4c-0.948,2.562-1.446,5.268-1.472,8c0,13.255,10.745,24,24,24l0,0h104
	c13.255,0,24-10.745,24-24l0,0c-0.026-2.732-0.524-5.438-1.472-8H384c8.837,0,16-7.163,16-16s-7.163-16-16-16h-56
	c-8.837,0-16-7.163-16-16s7.163-16,16-16h96c8.837,0,16-7.163,16-16S432.837,344,424,344z"/>
<path style="fill:#D1E3EE;" d="M320,320H160l-48-152l128-88l128,88L320,320z"/>
<path style="fill:#9FC8DD;" d="M320,320h-80V80l128,88L320,320z"/>
<path style="fill:#EA676B;" d="M147.736,281.16L160,320h160l12.264-38.84L240,256L147.736,281.16z"/>
<path style="fill:#C4414B;" d="M240,320h80l12.264-38.84L240,256V320z"/>
<g>
	<g>
		<path id="SVGCleanerId_0" style="fill:#2BB3CE;" d="M316.423,191.183l7.155-14.311l16,8l-7.155,14.311L316.423,191.183z"/>
	</g>
	<g>
		<path id="SVGCleanerId_1" style="fill:#2BB3CE;" d="M284.425,175.153l7.155-14.311l16,8l-7.155,14.311L284.425,175.153z"/>
	</g>
	<g>
		<path id="SVGCleanerId_2" style="fill:#2BB3CE;" d="M140.422,184.817l16-8l7.155,14.311l-16,8L140.422,184.817z"/>
	</g>
	<g>
		<path id="SVGCleanerId_3" style="fill:#2BB3CE;" d="M172.424,168.843l16-8l7.155,14.311l-16,8L172.424,168.843z"/>
	</g>
</g>
<path id="SVGCleanerId_0_1_" d="M316.423,191.183l7.155-14.311l16,8l-7.155,14.311L316.423,191.183z"/>
<path id="SVGCleanerId_1_1_" d="M284.425,175.153l7.155-14.311l16,8l-7.155,14.311L284.425,175.153z"/>
<path id="SVGCleanerId_2_1_" d="M140.422,184.817l16-8l7.155,14.311l-16,8L140.422,184.817z"/>
<path id="SVGCleanerId_3_1_" d="M172.424,168.843l16-8l7.155,14.311l-16,8L172.424,168.843z"/>
<path d="M424,336h-9.368c4.418-12.497-2.131-26.209-14.627-30.627C397.434,304.464,394.727,304,392,304h-58.56l42.184-133.6
	c1.059-3.354-0.198-7.007-3.096-9L344,141.792V8c0-4.418-3.582-8-8-8H144c-4.418,0-8,3.582-8,8v133.792l-28.528,19.616
	c-2.898,1.993-4.155,5.646-3.096,9L146.56,304H72c-13.255,0-24,10.745-24,24s10.745,24,24,24h72c4.418,0,8,3.582,8,8s-3.582,8-8,8
	H56c-13.255,0-24,10.745-24,24s10.745,24,24,24h48v6.92c0.013,13.846,11.234,25.067,25.08,25.08H160c0,17.673,14.327,32,32,32h104
	c17.673,0,32-14.327,32-32h56c13.255,0,24-10.745,24-24s-10.745-24-24-24h-56c-4.418,0-8-3.582-8-8s3.582-8,8-8h96
	c13.255,0,24-10.745,24-24S437.255,336,424,336L424,336z M300.672,112H328v18.792L300.672,112z M152,64h32v32h-32V64z M202.608,96
	H200V64h32v11.792L202.608,96z M248,64h32v32h-2.608L248,75.792V64z M328,96h-32V64h32V96z M328,48h-32V16h32V48z M280,48h-32V16h32
	V48z M232,48h-32V16h32V48z M152,16h32v32h-32V16z M152,112h27.336L152,130.792V112z M240,89.712L358.584,171.2l-31.632,100.224
	l-84.848-23.144c-1.378-0.376-2.83-0.376-4.208,0l-84.848,23.144L121.416,171.2L240,89.712z M322.128,286.688l-8,25.312H165.856
	l-8-25.312l82.144-22.4L322.128,286.688z M424,368h-96c-13.255,0-24,10.745-24,24s10.745,24,24,24h56c4.418,0,8,3.582,8,8
	s-3.582,8-8,8h-65.472c-4.418,0.003-7.998,3.586-7.995,8.005c0.001,0.909,0.156,1.811,0.459,2.667
	c0.64,1.705,0.981,3.507,1.008,5.328c0,8.837-7.163,16-16,16H192c-8.837,0-16-7.163-16-16c0.027-1.821,0.368-3.623,1.008-5.328
	c1.476-4.165-0.704-8.737-4.869-10.213c-0.857-0.304-1.759-0.459-2.667-0.459H129.08c-5.013-0.004-9.076-4.067-9.08-9.08V408
	c0-4.418-3.582-8-8-8H56c-4.418,0-8-3.582-8-8s3.582-8,8-8h88c13.255,0,24-10.745,24-24s-10.745-24-24-24H72c-4.418,0-8-3.582-8-8
	s3.582-8,8-8h79.616l0.76,2.4c1.047,3.33,4.133,5.597,7.624,5.6h160c3.491-0.003,6.577-2.27,7.624-5.6l0.76-2.4H392
	c4.418,0,8,3.582,8,8s-3.582,8-8,8s-8,3.582-8,8s3.582,8,8,8h32c4.418,0,8,3.582,8,8S428.418,368,424,368z"/>
<g>
</g>
<g>
</g>
<g>
</g>
<g>
</g>
<g>
</g>
<g>
</g>
<g>
</g>
<g>
</g>
<g>
</g>
<g>
</g>
<g>
</g>
<g>
</g>
<g>
</g>
<g>
</g>
<g>
</g>
</svg>
