<?xml version="1.0" encoding="iso-8859-1"?>
<!-- Generator: Adobe Illustrator 19.0.0, SVG Export Plug-In . SVG Version: 6.00 Build 0)  -->
<svg version="1.1" id="Capa_1" xmlns="http://www.w3.org/2000/svg" xmlns:xlink="http://www.w3.org/1999/xlink" x="0px" y="0px"
	 viewBox="0 0 472 472" style="enable-background:new 0 0 472 472;" xml:space="preserve">
<path style="fill:#DD3E46;" d="M420,408H52L4,232h464L420,408z"/>
<path style="fill:#AABECE;" d="M20,184h64v48H20V184z"/>
<path style="fill:#5A6470;" d="M36,8h32v176H36V8z"/>
<g>
	<path style="fill:#AABECE;" d="M228,32L68,40V8l160,8V32z"/>
	<path style="fill:#AABECE;" d="M228,128c-17.666-0.018-31.982-14.334-32-32h16c0,8.837,7.163,16,16,16c8.837,0,16-7.163,16-16
		s-7.163-16-16-16h-8V24h16v41.016c17.112,4.418,27.403,21.871,22.985,38.983C255.337,118.129,242.592,128,228,128z"/>
</g>
<path style="fill:#FDBD40;" d="M116,152h240v80H116V152z"/>
<path style="fill:#AABECE;" d="M388,120h64v112h-64V120z"/>
<path style="fill:#5A6470;" d="M452,120h-64l-16-16V88h96v16L452,120z"/>
<path style="fill:#AABECE;" d="M396,40h48v48h-48V40z"/>
<g>
	<path style="fill:#E97424;" d="M228,176h16v56h-16V176z"/>
	<path style="fill:#E97424;" d="M164,176h16v56h-16V176z"/>
	<path style="fill:#E97424;" d="M284,176h16v56h-16V176z"/>
</g>
<path style="fill:#87CEE9;" d="M468,369.825l-5.975,5.838c-14.508,14.045-37.543,14.045-52.051,0l-13.435-13.129
	c-13.917-13.469-35.81-14.098-50.477-1.45l-20.124,17.48c-14.667,12.649-36.56,12.02-50.477-1.45l-14.921-14.581
	c-13.917-13.469-35.81-14.098-50.477-1.45l-20.124,17.48c-14.667,12.649-36.56,12.02-50.477-1.45l-14.921-14.581
	c-13.917-13.469-35.81-14.098-50.477-1.45l-16.166,14.042c-15.619,13.491-39.218,11.765-52.708-3.855
	c-0.408-0.472-0.804-0.955-1.188-1.447V472h464L468,369.825z"/>
<g>
	<path style="fill:#195C85;" d="M100,432.367h16v16h-16V432.367z"/>
	<path style="fill:#195C85;" d="M132,432.367h16v16h-16V432.367z"/>
</g>
<g>
	<circle style="fill:#F4F4E6;" cx="92" cy="304" r="24"/>
	<circle style="fill:#F4F4E6;" cx="172" cy="304" r="24"/>
</g>
<g>
	<path style="fill:#195C85;" d="M340,415.977h16v16h-16V415.977z"/>
	<path style="fill:#195C85;" d="M372,415.977h16v16h-16V415.977z"/>
</g>
<circle style="fill:#5A6470;" cx="228" cy="24" r="24"/>
<g>
</g>
<g>
</g>
<g>
</g>
<g>
</g>
<g>
</g>
<g>
</g>
<g>
</g>
<g>
</g>
<g>
</g>
<g>
</g>
<g>
</g>
<g>
</g>
<g>
</g>
<g>
</g>
<g>
</g>
</svg>
